# xmcd
#
# Track frame offsets:
#	150
#	15634
#	27434
#	41830
#	59726
#	80517
#	96246
#	109640
#	124743
#	140499
#	155282
#	171469
#	191874
#	204867
#	219646
#	235319
#	248728
#	267899
#	282643
#	283472
#	284312
#	285231
#	286387
#	287341
#	288178
#	289029
#
# Disc length: 3860 seconds
#
# Revision: 1
# Processed by: cddbd v1.5.2PL0 Copyright (c) Steve Scherf et al.
# Submitted via: audiograbber 1.83.01
#
DISCID=a00f121a
DTITLE=Various Artist - CDX 608
DYEAR=2014
DGENRE=Country
TTITLE0=Toby Keith - Drunk Americans (Radio Edit)
TTITLE1=Rodney Atkins - Eat, Sleep, Love, You Repeat
TTITLE2=Luke Bryan - I See You
TTITLE3=The Swon Brothers - Pray For You (Edit)
TTITLE4=Justin Kane - American Strong
TTITLE5=Mitchell Tenpenny - Black Crow
TTITLE6=Vince Hatfield - How Long Will I LoveYou
TTITLE7=Haley and Michaels - Just Another Love Song
TTITLE8=Mikel Knight - Last Night In Texas
TTITLE9=Nashville Crush - Make It Bounce
TTITLE10=Donovan Lee - Missing You
TTITLE11=Madeline Smith - Stay
TTITLE12=Sweetwater Rain - Tailspin
TTITLE13=Paul Lovelace - Christmas Every Day With You
TTITLE14=Kacey Jones - Christmas In Rehab
TTITLE15=Tyler Barham - Coal In Your Stocking This Year
TTITLE16=Kacey Jones - I'm Down To My Christmas Underwear
TTITLE17=Sammy Hakim - This Christmas Love Me
TTITLE18=Skylar Elise - Home Town Country (Liner)
TTITLE19=Skylar Elise - Kickin' Country (Liner)
TTITLE20=Skylar Elise - More of the Country You Love (Liner)
TTITLE21=Skylar Elise - My New Single (Liner)
TTITLE22=Skylar Elise - Super Country (Liner)
TTITLE23=Skylar Elise - The Best In Country Music (Liner)
TTITLE24=Skylar Elise - Today's Best Country (Liner)
TTITLE25=Skylar Elise - Today's Hot Country (Liner)
EXTD=
EXTT0=
EXTT1=
EXTT2=
EXTT3=
EXTT4=
EXTT5=
EXTT6=
EXTT7=
EXTT8=
EXTT9=
EXTT10=
EXTT11=
EXTT12=
EXTT13=
EXTT14=
EXTT15=
EXTT16=
EXTT17=
EXTT18=
EXTT19=
EXTT20=
EXTT21=
EXTT22=
EXTT23=
EXTT24=
EXTT25=
PLAYORDER=
